<!--?xml version="1.0" encoding="utf-8"?-->
<!-- Generator: Adobe Illustrator 18.1.1, SVG Export Plug-In . SVG Version: 6.00 Build 0)  -->

<svg version="1.1" id="_x32_" xmlns="http://www.w3.org/2000/svg" xmlns:xlink="http://www.w3.org/1999/xlink" x="0px" y="0px" viewBox="0 0 512 512" style="width: 256px; height: 256px; opacity: 1;" xml:space="preserve">
<style type="text/css">
	.st0{fill:#4B4B4B;}
</style>
<g>
	<path class="st0" d="M248.755,373.366v-103.42L377.97,140.714v-16.935c0-41.713-33.816-75.529-75.537-75.529H74.436
		c-17.513,0-31.69,14.169-31.69,31.666v23.461h36.867c31.458,0,57.062,25.603,57.062,57.061c0,31.482-25.604,57.085-57.062,57.085
		H42.746v76.962h36.867c31.458,0,57.062,25.603,57.062,57.085c0,31.45-25.604,57.053-57.062,57.053H42.746v23.454
		c0,17.498,14.177,31.674,31.69,31.674h227.998c41.721,0,75.537-33.816,75.537-75.529v-40.674l-25.81,25.819H248.755z" style="fill: rgb(255, 255, 255);"></path>
	<path class="st0" d="M22.683,183.129h56.93c12.521,0,22.682-10.163,22.682-22.691c0-12.52-10.162-22.682-22.682-22.682h-56.93
		C10.162,137.756,0,147.918,0,160.438C0,172.966,10.162,183.129,22.683,183.129z" style="fill: rgb(255, 255, 255);"></path>
	<path class="st0" d="M102.295,351.57c0-12.536-10.162-22.699-22.682-22.699h-56.93C10.162,328.871,0,339.034,0,351.57
		c0,12.512,10.162,22.675,22.683,22.675h56.93C92.134,374.244,102.295,364.082,102.295,351.57z" style="fill: rgb(255, 255, 255);"></path>
	<path class="st0" d="M504.205,135.044L487.062,117.9c-10.394-10.394-27.26-10.394-37.653,0l-16.033,16.041l54.788,54.788
		l16.041-16.033C514.598,162.295,514.598,145.437,504.205,135.044z" style="fill: rgb(255, 255, 255);"></path>
	<polygon class="st0" points="283.133,284.184 283.133,338.972 337.914,338.972 473.224,203.67 418.436,148.896 	" style="fill: rgb(255, 255, 255);"></polygon>
</g>
</svg>
